<svg id="Layer_1" data-name="Layer 1" xmlns="http://www.w3.org/2000/svg" viewBox="0 0 320.43 423.48"><path class="cls-1" d="M164.61,29.65c1.84-.13,3.63-.29,5.38-.45s3.45-.35,5.09-.48c1.58,0,3.2,0,4.79,0l4.81,0-1,1.18-4-21.9,1,.81H168.71l1-.81q-1,5.28-2.06,10.52c-.09.43-.14.86-.26,1.31L167,21.12l-.79,2.77C165.65,25.76,165.13,27.68,164.61,29.65Zm0,0,.48-5.19.24-2.7.12-1.38c.05-.47.16-.95.25-1.43.64-3.8,1.32-7.61,2-11.39l.15-.82h13.59l.15.82,4,21.91.22,1.19h-1.2l-10.47-.07c-1.7-.12-3.33-.33-4.94-.48Z" transform="translate(-14.18 -6.74)"/><path class="cls-1" d="M262.36,216.26c-.31,4.57-1.83,9-2,13.48v.12l-.11,0a111.32,111.32,0,0,1-23,2.9A140.61,140.61,0,0,1,214,231.3c-15.37-2.2-30.31-6.49-45.17-10.68-7.42-2.16-14.85-4.26-22.32-6.19A229.82,229.82,0,0,0,124,209.55a108,108,0,0,0-23-1.31A74.57,74.57,0,0,0,78.48,213l-.86.33.45-.79c3.19-5.73,6.08-11.68,9.92-17.07A47.26,47.26,0,0,1,94.51,188q1.83-1.69,3.81-3.19l1-.73c.32-.26.73-.48.83-.69a1.11,1.11,0,0,0-.66-1.48q-8.77-4.45-17.75-8.52-4.48-2-9-4l-4.54-1.92-2.27-.94-1.14-.47-.57-.23-.29-.11-.2,0-2.6-.42,2.55-.87a162.46,162.46,0,0,1,23.53-6.26,114.07,114.07,0,0,1,24.34-1.87,120.22,120.22,0,0,1,24.18,3.4,237.18,237.18,0,0,1,23.32,7c7.65,2.65,15.24,5.46,22.89,8a214.75,214.75,0,0,0,23.25,6.44,93.26,93.26,0,0,0,23.88,2.15,49.06,49.06,0,0,0,22.81-6.6l0,0a8.62,8.62,0,0,0,.74-.61,6.18,6.18,0,0,0,.62-.71,10.28,10.28,0,0,0,1-1.68l.47-.88.27,1c1.92,7,3.8,13.92,5.32,21S262.92,209,262.36,216.26Zm-.2,0c.49-7.2-.81-14.37-2.33-21.39-.78-3.52-1.68-7-2.66-10.48s-2-6.92-3.05-10.37l.74.07a11.28,11.28,0,0,1-1,1.82c-.22.28-.42.54-.68.82a9.09,9.09,0,0,1-.8.68h0l0,0a50.46,50.46,0,0,1-23.18,7.33A92.08,92.08,0,0,1,204.82,183c-16-3.09-31.2-9.09-46.46-14.31-7.64-2.61-15.3-5.11-23.11-7a119.65,119.65,0,0,0-23.77-3.49,117.51,117.51,0,0,0-24,1.63,161.89,161.89,0,0,0-23.4,5.89l0-1.29.39.1.29.12.57.24,1.13.48,2.27,1,4.52,2q4.52,2,9,4.11,8.92,4.22,17.67,8.8a1.87,1.87,0,0,1,.93,2.59,1.83,1.83,0,0,1-.55.53l-.49.36-1,.71q-2,1.47-3.77,3.12a46.9,46.9,0,0,0-6.47,7.32c-3.84,5.31-6.76,11.22-9.88,17l-.42-.46a77.39,77.39,0,0,1,22.67-5,108.74,108.74,0,0,1,23.23.91c15.41,2.13,30.33,6.45,45.21,10.62s29.66,8.67,44.86,11.27a139.61,139.61,0,0,0,23,2,100.74,100.74,0,0,0,22.94-2.58l-.12.14C260.26,225.14,261.82,220.78,262.16,216.25Z" transform="translate(-14.18 -6.74)"/><path class="cls-1" d="M81.22,257.46c.32-4.57,1.92-8.94,2.13-13.48v-.11l.11,0a121.58,121.58,0,0,1,24.12-2.91,154.31,154.31,0,0,1,24.29,1.49,242.38,242.38,0,0,1,23.91,4.6q11.82,2.85,23.53,6.11c7.8,2.16,15.61,4.27,23.46,6.2s15.73,3.71,23.72,4.89a120.11,120.11,0,0,0,24.11,1.3,82.47,82.47,0,0,0,23.62-4.76l.83-.3-.44.76c-3.26,5.58-6.23,11.37-10.14,16.59a51.63,51.63,0,0,1-6.51,7.27c-1.2,1.1-2.46,2.14-3.76,3.13-.63.51-1.32,1-2,1.43a9.84,9.84,0,0,0-.89.66.74.74,0,0,0-.11.75,1.25,1.25,0,0,0,.57.67l1.07.53,2.18,1.08,4.33,2.21L268,300c2.87,1.49,5.75,2.94,8.68,4.3,1.46.67,2.93,1.33,4.42,2l2.23.93,1.12.44.56.23.28.1.21,0,2.72.44-2.67.87A184.43,184.43,0,0,1,261,315.92a104.93,104.93,0,0,1-25.46,1.37,143.38,143.38,0,0,1-25.15-4.09c-8.25-2-16.31-4.65-24.32-7.34s-16-5.48-24-7.92c-4-1.22-8.08-2.36-12.16-3.36s-8.17-1.91-12.31-2.6a89.29,89.29,0,0,0-25-1,54.63,54.63,0,0,0-12.17,2.83,47.29,47.29,0,0,0-5.73,2.54,25.67,25.67,0,0,0-2.68,1.54,13.19,13.19,0,0,0-2.2,2.16l-.47.53-.2-.68c-2-6.94-4-13.9-5.59-21S80.63,264.71,81.22,257.46Zm.19,0c-.51,7.21.85,14.4,2.45,21.41q1.23,5.28,2.78,10.47c1,3.46,2.1,6.91,3.18,10.36l-.67-.15a14.15,14.15,0,0,1,2.27-2.31,25.14,25.14,0,0,1,2.76-1.68,51,51,0,0,1,5.79-2.73,55.7,55.7,0,0,1,12.37-3.19,86.62,86.62,0,0,1,25.47.52c4.21.64,8.38,1.47,12.51,2.46s8.21,2.14,12.27,3.36c8.12,2.44,16.1,5.22,24.11,7.88s16,5.24,24.17,7.32a140.75,140.75,0,0,0,24.77,4.19,107.11,107.11,0,0,0,25-1.14,183,183,0,0,0,24.44-6.2l.05,1.3-.39-.09a2.49,2.49,0,0,1-.29-.11l-.56-.23-1.13-.47-2.24-1c-1.49-.66-3-1.34-4.43-2-2.93-1.4-5.81-2.9-8.66-4.43l-8.54-4.63-4.29-2.27-2.15-1.1-1.1-.57a2.08,2.08,0,0,1-.95-1.15,1.56,1.56,0,0,1,.29-1.53,2.82,2.82,0,0,1,.56-.45l.5-.33c.65-.47,1.34-.89,2-1.39a47.21,47.21,0,0,0,3.72-3.06,50.25,50.25,0,0,0,6.46-7.13c3.87-5.16,6.94-10.88,10.13-16.51l.39.46a83.53,83.53,0,0,1-23.8,5,120.7,120.7,0,0,1-24.33-.88c-8.06-1.05-16-2.67-23.93-4.51s-15.73-4-23.55-6.08c-15.61-4.28-31.19-8.68-47.14-11.28s-32.35-3-48.17.57l.12-.14C83.4,248.6,81.77,252.94,81.41,257.48Z" transform="translate(-14.18 -6.74)"/><path class="cls-1" d="M254.35,173.12c-1.18.17-2.08.34-3,.41a17.49,17.49,0,0,1-2.8.06,15.72,15.72,0,0,1-2.84-.42,12.12,12.12,0,0,1-3-1.09l0-.19a20.08,20.08,0,0,1,3-.31c1,0,2,0,3,0a24.75,24.75,0,0,1,3,.37,9.1,9.1,0,0,1,2.85,1Z" transform="translate(-14.18 -6.74)"/><path class="cls-1" d="M83.27,243.91a29.88,29.88,0,0,1,5.43-4.35c1-.65,2-1.19,3-1.76s2-1,3.08-1.53a38.63,38.63,0,0,1,6.58-2.24,21.48,21.48,0,0,1,3.52-.51,8.39,8.39,0,0,1,3.58.49l0,.2a10.4,10.4,0,0,0-3.32.34,33.47,33.47,0,0,0-3.24,1c-2.13.75-4.21,1.65-6.27,2.58-4.14,1.82-8.21,3.84-12.19,6Z" transform="translate(-14.18 -6.74)"/><path class="cls-1" d="M89.58,300.32a8.52,8.52,0,0,0,1.81-.19l1.71-.29c1.14-.19,2.26-.31,3.39-.4s2.26-.14,3.43-.12,2.32.05,3.7.16l.09.17a12.9,12.9,0,0,1-3.45,1.22,27.63,27.63,0,0,1-3.61.56,24.84,24.84,0,0,1-3.66,0,7.13,7.13,0,0,1-3.53-.95Z" transform="translate(-14.18 -6.74)"/><path class="cls-1" d="M260.3,230a6.25,6.25,0,0,1-1.08,2.82,12.59,12.59,0,0,1-1.89,2.26l-.52.52-.56.46c-.37.31-.74.62-1.13.9-.78.56-1.6,1-2.41,1.55s-1.69.88-2.58,1.24c-.44.18-.89.35-1.34.5a10.84,10.84,0,0,1-1.37.42,16.13,16.13,0,0,1-2.87.52,7.49,7.49,0,0,1-3-.25v-.2a17.62,17.62,0,0,0,5.23-1.52,49,49,0,0,0,4.92-2.45,41.29,41.29,0,0,0,4.64-2.94,12.45,12.45,0,0,0,3.75-3.9Z" transform="translate(-14.18 -6.74)"/><path class="cls-1" d="M239.11,147.85l-.45-6.08-.41-6.07.08.28a27.73,27.73,0,0,0-6-5.93l-.83-.67-.85-.64-1.72-1.28c-1.22-.75-2.4-1.55-3.65-2.26s-2.52-1.36-3.82-2l-3.95-1.73a82.82,82.82,0,0,0-8.2-2.71A126.38,126.38,0,0,0,175,114.57c-11.58.05-23.25,1-34.37,4.15a67.93,67.93,0,0,0-16,6.42,19,19,0,0,0-1.84,1.1L121,127.39c-.59.39-1.15.84-1.72,1.26a16.8,16.8,0,0,0-1.67,1.33c-.53.48-1.07.94-1.61,1.39l-1.58,1.44a22.3,22.3,0,0,0-2.72,3.17l.09-.33-.46,7.19-.5,7.18-.25-7.2-.2-7.19v-.16l.09-.16a23.84,23.84,0,0,1,2.64-3.74l1.52-1.66c.53-.52,1.11-1,1.68-1.48s1.17-.93,1.77-1.38,1.18-.9,1.8-1.31l1.88-1.2a20.63,20.63,0,0,1,1.92-1.14A70.16,70.16,0,0,1,140,116.79c11.37-3.22,23.2-4.17,34.91-4.22a128.56,128.56,0,0,1,34.89,4.28c2.87.72,5.63,1.79,8.41,2.78l4.06,1.79c1.34.63,2.63,1.36,3.95,2s2.52,1.56,3.79,2.33l1.81,1.31a14.73,14.73,0,0,1,1.76,1.39,28.17,28.17,0,0,1,5.79,6.89l.08.14v.14l-.16,6.09Z" transform="translate(-14.18 -6.74)"/><path class="cls-1" d="M241,232.67c.44,1.39.76,2.78,1.08,4.17l.06,4.18.14,8.38.15,8.37.07,4.19c-.28,1.4-.55,2.8-.93,4.2-.42-1.39-.74-2.78-1.07-4.17l-.07-4.19-.15-8.37-.14-8.37-.08-4.19C240.34,235.47,240.62,234.07,241,232.67Z" transform="translate(-14.18 -6.74)"/><path class="cls-1" d="M244,317.6q.67,12,1.24,24l.6,12c.19,4,.44,8,.49,12l1.3,48v.27l-.12.22a5.55,5.55,0,0,1-.41.62c-.14.19-.28.35-.42.51a11,11,0,0,1-.88.92c-.31.28-.61.58-.93.84l-1,.75a22.56,22.56,0,0,1-2,1.37,20.85,20.85,0,0,1-2.11,1.2,47.92,47.92,0,0,1-4.36,2c-1.48.61-3,1.09-4.5,1.64a121.38,121.38,0,0,1-18.58,4.1,265.58,265.58,0,0,1-37.79,2.07,261.35,261.35,0,0,1-37.8-2.12,118.7,118.7,0,0,1-18.56-4.15c-1.5-.56-3-1-4.5-1.66a47.92,47.92,0,0,1-4.35-2.06,22,22,0,0,1-2.1-1.21,21.28,21.28,0,0,1-2-1.39l-1-.76c-.31-.27-.61-.57-.92-.85a9.65,9.65,0,0,1-.87-.93,4.48,4.48,0,0,1-.41-.52,4.75,4.75,0,0,1-.41-.62l-.12-.22v-.27l1.77-50.1c.07-2.09.11-4.18.22-6.27l.35-6.26.72-12.51,1.48-25-.29,25.08-.16,12.54-.09,6.26c0,2.09-.15,4.18-.23,6.27l-1.77,50.1-.1-.48.24.36a2.91,2.91,0,0,0,.33.4,7.79,7.79,0,0,0,.74.79c.27.25.53.51.81.75l.89.69a18.78,18.78,0,0,0,1.87,1.29,19.22,19.22,0,0,0,2,1.14,43,43,0,0,0,4.17,2c1.42.61,2.9,1.07,4.35,1.61A117.24,117.24,0,0,0,137,426.11a259.31,259.31,0,0,0,37.51,2.1,263.71,263.71,0,0,0,37.51-2,119.58,119.58,0,0,0,18.24-4c1.45-.54,2.94-1,4.36-1.6a44.09,44.09,0,0,0,4.18-1.94,17.68,17.68,0,0,0,2-1.14,16.29,16.29,0,0,0,1.88-1.27l.9-.68c.28-.24.54-.5.82-.75a7.87,7.87,0,0,0,.75-.78,3,3,0,0,0,.33-.4c.09-.13.21-.28.25-.35l-.12.49-1.33-48.05c-.17-4-.13-8-.16-12l-.06-12Q244,329.63,244,317.6Z" transform="translate(-14.18 -6.74)"/><path class="cls-1" d="M108.64,240.62c-.38-1.39-.64-2.78-.9-4.17l.12-4.13.22-8.28.23-8.28.11-4.14c.34-1.37.67-2.75,1.11-4.11.36,1.39.62,2.77.89,4.16l-.12,4.14-.22,8.28-.22,8.28-.1,4.14C109.43,237.88,109.09,239.25,108.64,240.62Z" transform="translate(-14.18 -6.74)"/><path class="cls-1" d="M246,392.68a8.75,8.75,0,0,1-1.43,1.84,17.24,17.24,0,0,1-1.73,1.58,28.24,28.24,0,0,1-3.91,2.6c-1.34.83-2.79,1.42-4.2,2.11s-2.91,1.15-4.37,1.73a115.36,115.36,0,0,1-18.2,4.46,243.75,243.75,0,0,1-37.27,2.69,266,266,0,0,1-37.28-2.43,119.08,119.08,0,0,1-18.27-4.09c-1.49-.49-3-1.06-4.42-1.59l-2.15-.94a20.72,20.72,0,0,1-2.12-1c-.68-.39-1.39-.72-2-1.15s-1.33-.83-2-1.3a12.94,12.94,0,0,1-3.26-3.34,12.37,12.37,0,0,0,3.52,3c.64.41,1.34.75,2,1.12s1.4.64,2.09,1,1.42.59,2.14.85l2.17.78c1.48.42,2.94.89,4.43,1.27a139.22,139.22,0,0,0,18.17,3.18c6.13.63,12.28,1.15,18.45,1.36l4.62.18,2.32.1,2.31,0,9.27.09,9.26-.11c3.09,0,6.16-.26,9.25-.35,6.16-.26,12.3-.83,18.42-1.54a133.54,133.54,0,0,0,18.09-3.54c1.46-.48,2.94-.9,4.39-1.42s2.88-1.06,4.25-1.76a29.17,29.17,0,0,0,4-2.23,16.46,16.46,0,0,0,1.85-1.38A9,9,0,0,0,246,392.68Z" transform="translate(-14.18 -6.74)"/><path class="cls-1" d="M238.84,316.31a45.17,45.17,0,0,1-8,3.28c-1.38.44-2.76.87-4.16,1.23s-2.8.74-4.21,1.07a165.35,165.35,0,0,1-17.11,3c-5.75.65-11.52,1.19-17.3,1.42l-4.34.2c-1.44.06-2.89.07-4.33.11l-4.34.07c-1.44,0-2.89,0-4.34,0l-4.35-.06c-1.44,0-2.89-.12-4.34-.18l-4.34-.22-4.33-.37c-5.78-.47-11.54-1.26-17.25-2.26a156.06,156.06,0,0,1-16.94-4c-1.39-.43-2.78-.83-4.15-1.32l-2.07-.7-2-.77a71.05,71.05,0,0,1-8-3.57l-.42-.23,0-.45.67-10c.22-3.34.46-6.68.74-10,0,3.35.08,6.7.07,10v10l-.39-.68a70.14,70.14,0,0,0,7.94,3.07c1.35.46,2.72.87,4.09,1.27s2.75.78,4.13,1.15c5.54,1.42,11.14,2.56,16.79,3.48a250.68,250.68,0,0,0,34.19,2.86c11.46.16,23-.06,34.39-1,5.71-.49,11.41-1.15,17.07-2.09A79.33,79.33,0,0,0,238.84,316.31Z" transform="translate(-14.18 -6.74)"/><path class="cls-1" d="M187.77,305.13c-3.55.39-7.12.65-10.68.91s-7.15.26-10.73.32A185.5,185.5,0,0,1,144.91,305c-1.78-.2-3.54-.54-5.32-.79s-3.54-.58-5.3-.95-3.51-.71-5.26-1.15l-2.61-.63c-.87-.22-1.73-.48-2.6-.73-6.88-2-13.73-4.39-19.87-8.1a141.48,141.48,0,0,0,20.44,5.83c1.73.39,3.46.72,5.2,1.06s3.47.66,5.22.93l2.61.45c.87.15,1.75.26,2.62.39,1.75.23,3.49.54,5.25.71l5.27.65,5.28.5,2.65.28,2.65.18c1.76.12,3.53.26,5.3.41l5.31.28c1.78.11,3.55.24,5.33.27C180.63,304.72,184.19,304.86,187.77,305.13Z" transform="translate(-14.18 -6.74)"/><path class="cls-1" d="M242.89,181c-.25-4.73-.43-9.46-.61-14.19l-.27-7.1-.23-7.1.11.42a28.92,28.92,0,0,0-6.07-6.3,19.23,19.23,0,0,0-1.77-1.35l-1.82-1.29c-1.28-.76-2.53-1.57-3.84-2.28s-2.65-1.38-4-2l-4.12-1.76c-2.83-1-5.63-2-8.56-2.74A137.51,137.51,0,0,0,176,131c-3,0-6,.14-9.05.2-1.51,0-3,.19-4.51.28l-4.51.35c-1.5.12-3,.39-4.48.58s-3,.38-4.47.64l-4.42.88c-.74.15-1.49.27-2.21.46l-2.18.58c-1.44.41-2.92.73-4.34,1.22l-4.27,1.44c-1.41.54-2.78,1.15-4.17,1.72a20,20,0,0,0-2,1l-2,1a22.42,22.42,0,0,0-2,1.1l-1.94,1.15c-.64.4-1.23.85-1.86,1.28a21.13,21.13,0,0,0-1.81,1.34,29.06,29.06,0,0,0-6.28,6.44l0-.08-.23,4-.09-4v0l0,0a28.14,28.14,0,0,1,6-7c.55-.54,1.17-1,1.77-1.48s1.19-1,1.82-1.41l1.91-1.3a22.12,22.12,0,0,1,2-1.24,70.81,70.81,0,0,1,16.95-7.22l2.22-.67c.73-.21,1.49-.36,2.24-.54l4.5-1c1.5-.33,3-.51,4.54-.76s3-.53,4.56-.68l4.58-.44c1.53-.12,3.06-.36,4.59-.38,3.07-.09,6.14-.24,9.2-.27a129.54,129.54,0,0,1,36.5,4.55,91.49,91.49,0,0,1,8.77,3l4.24,1.91c1.39.68,2.73,1.47,4.09,2.2s2.62,1.68,3.93,2.51l1.86,1.41a19.68,19.68,0,0,1,1.81,1.47,28.94,28.94,0,0,1,6.24,7.08l.11.18v.23l-.11,7.1-.15,7.1C243.16,171.56,243.06,176.3,242.89,181Z" transform="translate(-14.18 -6.74)"/><path class="cls-1" d="M242.66,181l-.06-.86v0a37.82,37.82,0,0,0-10.23-8.89,76.52,76.52,0,0,0-12.2-5.88L217,164.38c-1.08-.35-2.12-.77-3.23-1l-3.29-.86a33.66,33.66,0,0,0-3.3-.78c-2.23-.4-4.43-.95-6.67-1.27l-6.74-.92c-4.53-.39-9.05-.87-13.61-.92-2.28-.06-4.55-.22-6.83-.19s-4.55,0-6.83.11a171.59,171.59,0,0,0-27.23,3.06,112.79,112.79,0,0,1,27.09-5.39,123.51,123.51,0,0,1,13.87-.41c4.63-.06,9.25.42,13.87.76l6.89,1c1.15.13,2.28.43,3.42.65l3.41.74c1.14.22,2.25.56,3.37.89l3.35,1c2.22.68,4.38,1.59,6.56,2.41a66.68,66.68,0,0,1,12.18,6.81,33.65,33.65,0,0,1,9.47,10.1h0Z" transform="translate(-14.18 -6.74)"/><path class="cls-1" d="M124.52,124.45c.18.65.3,1.29.42,1.93l-.08,1.9-.16,3.81-.15,3.8-.08,1.91c-.19.62-.35,1.25-.58,1.88-.17-.64-.28-1.28-.42-1.92l.08-1.91.16-3.8.15-3.81.08-1.9A19.48,19.48,0,0,1,124.52,124.45Z" transform="translate(-14.18 -6.74)"/><path class="cls-1" d="M121.11,208.47c.15,1.39.22,2.78.33,4.17l-.18,4.14-.35,8.28-.35,8.29-.17,4.14c-.23,1.37-.41,2.75-.67,4.12-.15-1.39-.22-2.78-.33-4.16l.18-4.15.34-8.28.35-8.28.17-4.14C120.66,211.22,120.84,209.85,121.11,208.47Z" transform="translate(-14.18 -6.74)"/><path class="cls-1" d="M117.71,289.88a7.53,7.53,0,0,1,.46,1l0,1-.07,2-.07,2,0,1a7.18,7.18,0,0,1-.54,1c-.18-.33-.32-.67-.46-1l0-1,.07-2,.07-2,0-1A9.53,9.53,0,0,1,117.71,289.88Z" transform="translate(-14.18 -6.74)"/><path class="cls-1" d="M116.6,317.62c.07,3.45.06,6.91.08,10.37l-.43,10.35-.84,20.71-.85,20.7-.43,10.35c-.31,3.45-.58,6.89-.92,10.34-.06-3.46,0-6.92-.08-10.38l.43-10.35.85-20.7.84-20.71.42-10.35C116,324.5,116.25,321.06,116.6,317.62Z" transform="translate(-14.18 -6.74)"/><path class="cls-1" d="M138.1,118.85c.19.64.32,1.28.45,1.92l-.06,1.91-.1,3.8-.11,3.81-.05,1.9c-.19.63-.33,1.26-.55,1.89-.19-.64-.3-1.28-.45-1.92l.05-1.9.11-3.81.11-3.8,0-1.91C137.71,120.11,137.88,119.48,138.1,118.85Z" transform="translate(-14.18 -6.74)"/><path class="cls-1" d="M135.85,211.49c.18,1.33.28,2.67.41,4l-.09,4-.17,8-.17,8-.09,4c-.2,1.33-.36,2.66-.59,4-.17-1.33-.27-2.66-.41-4l.09-4,.17-8,.17-8,.09-4C135.45,214.14,135.61,212.81,135.85,211.49Z" transform="translate(-14.18 -6.74)"/><path class="cls-1" d="M134.13,290.56a13.76,13.76,0,0,1,.46,1.42l0,1.39-.08,2.8-.09,2.79,0,1.4a13.11,13.11,0,0,1-.54,1.38c-.18-.47-.32-.94-.46-1.41l0-1.4.09-2.79.08-2.8,0-1.39A14.86,14.86,0,0,1,134.13,290.56Z" transform="translate(-14.18 -6.74)"/><path class="cls-1" d="M133.25,322.08c.13,3.47.18,6.93.27,10.39l-.23,10.39-.46,20.77-.46,20.76-.23,10.39c-.24,3.46-.45,6.91-.73,10.37-.12-3.46-.17-6.93-.27-10.39l.23-10.39.46-20.77.46-20.76.22-10.39C132.76,329,133,325.54,133.25,322.08Z" transform="translate(-14.18 -6.74)"/><path class="cls-1" d="M154.74,115.08c.19.67.33,1.34.46,2l0,2-.08,4-.08,4,0,2c-.18.66-.32,1.33-.54,2-.19-.67-.3-1.34-.46-2l0-2,.08-4,.08-4,0-2C154.35,116.4,154.52,115.74,154.74,115.08Z" transform="translate(-14.18 -6.74)"/><path class="cls-1" d="M153.82,158.23a7.59,7.59,0,0,1,.48,1l0,1-.05,2,0,2,0,1c-.16.33-.32.65-.52,1a8.25,8.25,0,0,1-.48-1l0-1,0-2,.05-2v-1A8.5,8.5,0,0,1,153.82,158.23Z" transform="translate(-14.18 -6.74)"/><path class="cls-1" d="M152.59,214.9c.18,1.34.27,2.67.41,4l-.1,4-.19,8-.19,8-.09,4c-.2,1.33-.36,2.66-.59,4-.17-1.34-.27-2.68-.41-4l.09-4,.19-8,.19-8,.09-4C152.19,217.56,152.35,216.23,152.59,214.9Z" transform="translate(-14.18 -6.74)"/><path class="cls-1" d="M150.75,293.77a11.23,11.23,0,0,1,.47,1.34l0,1.33-.07,2.66-.06,2.67,0,1.33c-.16.44-.32.88-.53,1.32-.19-.45-.33-.9-.47-1.35l0-1.33.06-2.66.07-2.66,0-1.33A11.44,11.44,0,0,1,150.75,293.77Z" transform="translate(-14.18 -6.74)"/><path class="cls-1" d="M150.06,323.87c.13,3.49.18,7,.27,10.47l-.23,10.47-.47,20.92-.46,20.93-.23,10.47c-.24,3.48-.45,7-.73,10.45-.12-3.49-.18-7-.27-10.47l.23-10.47.46-20.93.47-20.93.22-10.46C149.57,330.83,149.77,327.35,150.06,323.87Z" transform="translate(-14.18 -6.74)"/><path class="cls-1" d="M174.77,113.62c.21.66.36,1.32.51,2v12c-.17.66-.3,1.32-.5,2-.2-.67-.33-1.33-.5-2v-12A20,20,0,0,1,174.77,113.62Z" transform="translate(-14.18 -6.74)"/><path class="cls-1" d="M174.62,157.43c.2.66.35,1.33.5,2v11.92c-.17.66-.3,1.33-.5,2-.21-.66-.34-1.33-.5-2V159.42C174.26,158.76,174.41,158.09,174.62,157.43Z" transform="translate(-14.18 -6.74)"/><path class="cls-1" d="M174.6,221.44c.22,1.29.35,2.58.53,3.86l0,3.87,0,7.73.05,7.74,0,3.86c-.16,1.29-.28,2.58-.48,3.87-.21-1.29-.34-2.57-.52-3.86l0-3.87-.05-7.73,0-7.73,0-3.87C174.28,224,174.4,222.73,174.6,221.44Z" transform="translate(-14.18 -6.74)"/><path class="cls-1" d="M174.54,300.57a5,5,0,0,1,.51.68c0,.23,0,.45,0,.68v3.41a6,6,0,0,1-.5.69,5.9,5.9,0,0,1-.5-.68v-3.41c0-.23,0-.46,0-.69A5.6,5.6,0,0,1,174.54,300.57Z" transform="translate(-14.18 -6.74)"/><path class="cls-1" d="M174.46,325.21c.22,3.45.35,6.91.52,10.37L175,346l.05,20.75,0,20.75,0,10.37c-.16,3.46-.28,6.92-.47,10.38-.21-3.46-.35-6.92-.53-10.38l0-10.37,0-20.75L174,346l0-10.37C174.13,332.12,174.26,328.67,174.46,325.21Z" transform="translate(-14.18 -6.74)"/><path class="cls-1" d="M195.35,115.08c.22.64.38,1.27.54,1.91l0,1.93.08,3.86.08,3.86,0,1.93c-.16.64-.27,1.29-.46,1.93-.22-.63-.36-1.27-.54-1.91l0-1.93L195,122.8l-.08-3.86,0-1.92C195,116.37,195.15,115.72,195.35,115.08Z" transform="translate(-14.18 -6.74)"/><path class="cls-1" d="M196.19,158.15c.22.9.39,1.79.55,2.68l0,2.7.11,5.38.11,5.39.05,2.69c-.15.9-.26,1.8-.44,2.7-.22-.89-.37-1.79-.56-2.68l-.05-2.69-.11-5.39-.11-5.38,0-2.7C195.86,160,196,159.05,196.19,158.15Z" transform="translate(-14.18 -6.74)"/><path class="cls-1" d="M197.4,227.45c.24,1.31.39,2.62.58,3.94l.08,3.94.16,7.89.15,7.89.08,3.94c-.14,1.32-.24,2.64-.42,4-.23-1.31-.38-2.63-.58-3.94l-.08-3.94-.15-7.89-.16-7.89-.09-3.94C197.11,230.09,197.22,228.77,197.4,227.45Z" transform="translate(-14.18 -6.74)"/><path class="cls-1" d="M199.28,324.28c.27,3.43.46,6.86.68,10.3l.18,10.3.37,20.62.37,20.62.18,10.3c-.1,3.44-.17,6.88-.31,10.32-.27-3.43-.46-6.87-.69-10.3l-.18-10.31-.37-20.61-.37-20.62L199,334.6C199.06,331.16,199.13,327.72,199.28,324.28Z" transform="translate(-14.18 -6.74)"/><path class="cls-1" d="M210.85,118.08c.22.64.38,1.28.54,1.92l0,1.93.07,3.86.08,3.85,0,1.93c-.16.65-.27,1.29-.46,1.94-.22-.64-.36-1.28-.54-1.92l0-1.93-.08-3.85-.07-3.86-.05-1.93C210.52,119.38,210.65,118.73,210.85,118.08Z" transform="translate(-14.18 -6.74)"/><path class="cls-1" d="M211.88,161.34c.23.9.4,1.8.58,2.69l.07,2.71.16,5.41.15,5.41.08,2.71c-.14.9-.24,1.81-.42,2.72-.23-.9-.38-1.8-.58-2.69l-.08-2.71-.15-5.41-.16-5.41-.08-2.71C211.57,163.16,211.69,162.25,211.88,161.34Z" transform="translate(-14.18 -6.74)"/><path class="cls-1" d="M213.75,230.79c.24,1.33.41,2.66.61,4l.12,4,.23,8,.23,8,.11,4c-.13,1.34-.22,2.68-.38,4-.24-1.33-.41-2.66-.62-4l-.11-4-.23-8-.23-8-.12-4C213.48,233.47,213.57,232.13,213.75,230.79Z" transform="translate(-14.18 -6.74)"/><path class="cls-1" d="M216.37,322.34c.3,3.43.53,6.86.79,10.28l.28,10.3.58,20.6.57,20.6.29,10.3c-.07,3.43-.11,6.87-.21,10.31-.3-3.43-.53-6.86-.79-10.29l-.29-10.3L217,363.55l-.58-20.6-.29-10.3C216.22,329.22,216.25,325.78,216.37,322.34Z" transform="translate(-14.18 -6.74)"/><path class="cls-1" d="M224.46,123.6c.23.63.4,1.26.57,1.89l.06,1.9.14,3.81.13,3.81.06,1.91c-.14.64-.25,1.28-.43,1.92-.22-.63-.37-1.26-.56-1.89l-.07-1.9-.13-3.81-.14-3.81-.07-1.91C224.15,124.88,224.28,124.24,224.46,123.6Z" transform="translate(-14.18 -6.74)"/><path class="cls-1" d="M226.23,167c.24.68.42,1.36.6,2l.08,2.07.19,4.13.18,4.14.09,2.07c-.14.69-.24,1.39-.41,2.08-.23-.68-.39-1.36-.59-2l-.09-2.07-.18-4.13-.19-4.14-.09-2.06C225.93,168.39,226.05,167.7,226.23,167Z" transform="translate(-14.18 -6.74)"/><path class="cls-1" d="M229,232.67c.27,1.35.45,2.71.68,4.06l.18,4.08.36,8.17.36,8.17.18,4.08c-.11,1.37-.18,2.74-.32,4.11-.26-1.35-.45-2.71-.68-4.06l-.18-4.09-.36-8.17-.36-8.16-.19-4.09C228.78,235.4,228.85,234,229,232.67Z" transform="translate(-14.18 -6.74)"/><path class="cls-1" d="M232.59,318.93c.36,3.35.63,6.71.95,10.06l.44,10.09.89,20.17.88,20.17.45,10.08c0,3.37,0,6.74-.06,10.11-.35-3.35-.62-6.71-.94-10.06l-.45-10.09-.88-20.17L233,339.12,232.53,329C232.55,325.67,232.53,322.3,232.59,318.93Z" transform="translate(-14.18 -6.74)"/><text x="-14.18" y="-6.74"/><path class="cls-1" d="M127,210.16l-.26,8.65c0,1.44-.09,2.89-.15,4.33s-.17,2.87-.32,4.31h0c0-1.44,0-2.88,0-4.33s.12-2.88.21-4.32l.47-8.64Z" transform="translate(-14.18 -6.74)"/><path class="cls-1" d="M145.76,228.26l-.26,8.65q0,2.16-.15,4.32c-.11,1.44-.17,2.88-.32,4.32h0c0-1.44,0-2.89.05-4.33s.13-2.88.21-4.32l.47-8.64Z" transform="translate(-14.18 -6.74)"/><path class="cls-1" d="M184.52,223.56l.17,9c0,1.51.05,3,.06,4.52s0,3-.11,4.51h0c-.1-1.5-.11-3-.16-4.51s0-3,0-4.51l0-9Z" transform="translate(-14.18 -6.74)"/><path class="cls-1" d="M208,243.23l.17,9c0,1.51,0,3,.06,4.51s0,3-.11,4.52h0c-.1-1.51-.11-3-.16-4.51s0-3,0-4.52l0-9Z" transform="translate(-14.18 -6.74)"/><path class="cls-1" d="M235.44,232.67l.4,6.69c.15,2.23.25,4.46.19,6.7h0c-.26-2.23-.36-4.46-.4-6.69l-.19-6.7Z" transform="translate(-14.18 -6.74)"/><path class="cls-1" d="M129.25,122.45l.1,4a24.55,24.55,0,0,1-.1,4h0a25.72,25.72,0,0,1-.11-4l.11-4Z" transform="translate(-14.18 -6.74)"/><path class="cls-1" d="M165.84,161.34l-.07,4.33a29.86,29.86,0,0,1-.29,4.32h0a28.44,28.44,0,0,1,.08-4.33l.28-4.32Z" transform="translate(-14.18 -6.74)"/><path class="cls-1" d="M200.76,116.33l.11,4a25.72,25.72,0,0,1-.11,4h0a24.55,24.55,0,0,1-.1-4l.1-4Z" transform="translate(-14.18 -6.74)"/><path class="cls-1" d="M206.34,170.67l.14,5.83a54,54,0,0,1-.06,5.83h0a54,54,0,0,1-.15-5.83l.07-5.83Z" transform="translate(-14.18 -6.74)"/><path class="cls-1" d="M138.5,324l-.55,15.5-.29,7.74c-.16,2.59-.27,5.17-.46,7.75h0c0-2.59.13-5.17.19-7.76l.35-7.74.76-15.5Z" transform="translate(-14.18 -6.74)"/><path class="cls-1" d="M159.19,371.25l-.27,17.12-.16,8.55c-.11,2.85-.17,5.7-.33,8.55h0c0-2.85,0-5.7.06-8.56l.22-8.55.48-17.11Z" transform="translate(-14.18 -6.74)"/><path class="cls-1" d="M147.8,296.15l-.05,3.58a19.43,19.43,0,0,1-.25,3.57h0a20.38,20.38,0,0,1,0-3.58l.26-3.57Z" transform="translate(-14.18 -6.74)"/><path class="cls-1" d="M119.72,375.62l-.43,13.07c-.07,2.18-.15,4.35-.24,6.53s-.23,4.36-.4,6.53h0c0-2.18.09-4.36.13-6.54s.18-4.36.3-6.53l.64-13.06Z" transform="translate(-14.18 -6.74)"/><path class="cls-1" d="M208,323.87l.22,17.57.09,8.79c0,2.94,0,5.87-.08,8.8h0c-.11-2.93-.12-5.86-.19-8.79l0-8.79V323.87Z" transform="translate(-14.18 -6.74)"/><path class="cls-1" d="M187.67,349.21l.21,16.83.09,8.42c0,2.81,0,5.62-.08,8.43h0c-.11-2.81-.13-5.62-.19-8.42l0-8.42V349.21Z" transform="translate(-14.18 -6.74)"/><path class="cls-1" d="M230,369.32l.79,15.55.38,7.78c.06,2.6.18,5.19.21,7.79h0c-.21-2.59-.32-5.19-.48-7.78l-.32-7.78-.58-15.56Z" transform="translate(-14.18 -6.74)"/><path class="cls-1" d="M168.17,113.59l-.67-20.46c-.19-3.4-.09-7-.12-10.52l0-10.59,0-42.37v-1h1l12.6.09h1v1l-.16,41.93-.08,21,0,5.24c0,1.75,0,3.49-.07,5.24l-.45,10.48,0,.57-.53,0C176.49,113.9,172.34,113.54,168.17,113.59Zm0,0c2.07-.23,4.16-.34,6.25-.42l6.27-.12-.56.54-.38-10.49c-.09-1.74,0-3.49,0-5.24l0-5.24.08-21L180,29.73l1,1-12.6-.09,1-1-.19,41.57-.08,10.4c-.05,3.48,0,6.87-.17,10.46Z" transform="translate(-14.18 -6.74)"/><path class="cls-1" d="M117.23,198.46l.7-4.11.71-4.12c.23-1.5.54-3.77.94-6.83s.71-5.3,1-6.83l0-.2a7.15,7.15,0,0,1,.42-1.58,1.06,1.06,0,0,1,1.25-.74,5.08,5.08,0,0,1,3.6,2.1,5.71,5.71,0,0,1,.81,4.22,7.19,7.19,0,0,1-1.32,3,6.53,6.53,0,0,1-2.35,2.15,8,8,0,0,1,2.44,3.83,10.79,10.79,0,0,1,.25,4.69,7.13,7.13,0,0,1-1.28,2.79,6.41,6.41,0,0,1-3.19,2.57,5.31,5.31,0,0,1-2.36.15l-.14,0C117.63,199.38,117.14,199,117.23,198.46Zm5.15-1.68a4.82,4.82,0,0,0,1.47-2.9A14.5,14.5,0,0,0,124,191a6.11,6.11,0,0,0-.38-2.07,7.76,7.76,0,0,0-.59-1.19,2.4,2.4,0,0,0-.57-.67l-.26-.15-1.25-.19q-.42,3.88-1.53,11.14A4.07,4.07,0,0,0,122.38,196.78Zm.68-13.22a12.7,12.7,0,0,0,1.32-2.13,9.24,9.24,0,0,1,.5-.89l.18-1.17a3.1,3.1,0,0,0-.47-2.07,2.23,2.23,0,0,0-1.58-1.2c-.32,0-.54.27-.64,1-.23,1.48-.41,2.8-.54,4l-.51,3.74A2.44,2.44,0,0,0,123.06,183.56Z" transform="translate(-14.18 -6.74)"/><path class="cls-1" d="M142.1,202.05a11.8,11.8,0,0,1-1-4.88,38.68,38.68,0,0,1,.44-6.21c.28-2,.66-4.11,1.12-6.39l.56-2.76q.27-1.16.54-2.46a.86.86,0,0,1-.14-.72,1,1,0,0,1,.45-.65,1,1,0,0,1,.75-.18c.82.17,1.08,1,.76,2.62q-.31,1.53-1,5.82c-.46,2.86-.8,4.8-1,5.82a9.25,9.25,0,0,1,0,1.8,16.75,16.75,0,0,1-.28,2.16,8.42,8.42,0,0,0-.12,1.86,13.34,13.34,0,0,0,.24,2.32,5.72,5.72,0,0,0,.78,2.15,2.16,2.16,0,0,0,1.35,1.06,1.18,1.18,0,0,0,.87-.14,1.44,1.44,0,0,0,.6-.78,8.12,8.12,0,0,0,.58-1.79l1.32-6.48a26.18,26.18,0,0,0,.4-3.18c.14-1.42.29-2.49.43-3.2l0-.24c.07-.35.12-.67.16-1l.16-1c.13-.62.29-1.57.47-2.85s.29-2.11.45-2.89a.79.79,0,0,1,.52-.55,1.64,1.64,0,0,1,.93-.09l.7.94-.11.57a4.76,4.76,0,0,1-.34.94c-.21.6-.33.94-.35,1q-.62,3-1.35,8.42-.83,5.65-1.46,8.75a11.29,11.29,0,0,1-.94,2.86,3.55,3.55,0,0,1-.81,1.11,3.1,3.1,0,0,1-1.14.6,3.19,3.19,0,0,1-1.58,0A4,4,0,0,1,142.1,202.05Z" transform="translate(-14.18 -6.74)"/><path class="cls-1" d="M165.47,208.77a2.24,2.24,0,0,1,.09-1.24c.23-.71.57-1.56,1-2.57l.34-.81.63-1.69q.38-1.12,1.42-5.11t1.43-5.1c0-.07.07-.19.14-.37s.17-.46.3-.85.34-.94.55-1.57a8.81,8.81,0,0,0,.66-3.1,7.16,7.16,0,0,0-.9-.19l-.95-.24a1.35,1.35,0,0,1-.69-.5.77.77,0,0,1-.12-.74c.08-.25.42-.39,1-.41a18.4,18.4,0,0,1,4.13.75l1.39.39a1.23,1.23,0,0,1,.65.5.85.85,0,0,1,.12.75.84.84,0,0,1-.5.54,1.08,1.08,0,0,1-.79,0l-.59-.22a4.67,4.67,0,0,0-.58-.23l-.34-.11a38.18,38.18,0,0,1-1.07,4l-.71,2.05c-.23.62-.47,1.31-.73,2.09-.34,1-.7,2.28-1.09,3.75-.48,1.82-.83,3.07-1.05,3.76s-.55,1.8-.83,2.95-.56,2.15-.82,2.94c-.35,1.06-.84,1.48-1.49,1.26A.9.9,0,0,1,165.47,208.77Z" transform="translate(-14.18 -6.74)"/><path class="cls-1" d="M187.23,215.76a2.29,2.29,0,0,1,0-1.25c.17-.72.42-1.61.75-2.65l.27-.84.46-1.74c.18-.77.49-2.51.95-5.22s.76-4.44.94-5.21c0-.07,0-.2.1-.38s.13-.48.22-.87.26-1,.41-1.62a8.93,8.93,0,0,0,.36-3.15,8.76,8.76,0,0,0-.91-.11l-1-.15a1.33,1.33,0,0,1-.73-.43.77.77,0,0,1-.19-.72c.06-.27.38-.43,1-.51a18.1,18.1,0,0,1,4.19.37l1.42.25a1.23,1.23,0,0,1,.69.44.86.86,0,0,1-.25,1.32,1.11,1.11,0,0,1-.79.08l-.61-.18a5.56,5.56,0,0,0-.6-.17l-.34-.08a41,41,0,0,1-.7,4.13l-.52,2.11c-.17.63-.34,1.35-.52,2.14-.24,1.06-.49,2.34-.74,3.84-.3,1.86-.53,3.14-.7,3.84s-.37,1.85-.54,3-.36,2.2-.55,3c-.24,1.08-.7,1.55-1.36,1.4A.92.92,0,0,1,187.23,215.76Z" transform="translate(-14.18 -6.74)"/><path class="cls-1" d="M208.45,219.75a.87.87,0,0,1-.48-1l2.28-19.59a11.18,11.18,0,0,0,0-1.74,7.65,7.65,0,0,1-.05-1.75v-.1a8.15,8.15,0,0,1,1-1.12,7.69,7.69,0,0,0,1.31,0,6.94,6.94,0,0,1,1.3,0,2,2,0,0,1,1,.45.9.9,0,0,1,.43.82c-.08.67-.65,1-1.71.82l-.49-.05a2.94,2.94,0,0,0-.48-.09,1,1,0,0,0-.39,0c-.09.76-.15,1.69-.18,2.78l0,.95-.15,1.86q-.07.64-.33,1.95l-.29,1.88.5,0a4.58,4.58,0,0,1,1.17-.07,1,1,0,0,1,.66.37.87.87,0,0,1,.24.69,1.16,1.16,0,0,1-.34.7.82.82,0,0,1-.69.24l-.41-.08-.45-.05a1,1,0,0,0-.76.15l-1.21,10.42,2,.13c1.32.15,1.95.52,1.88,1.1v.14a1.6,1.6,0,0,1-.85.57,3.81,3.81,0,0,1-1.11.19l-1.15-.1-1.08-.12A3.51,3.51,0,0,1,208.45,219.75Z" transform="translate(-14.18 -6.74)"/><path class="cls-1" d="M236,220.88v-.1a22.34,22.34,0,0,0-.62-4q-.53-2.21-1.53-5.33c-.52-1.56-.95-3-1.29-4.21l0,13.37a1.41,1.41,0,0,1-.19.8.91.91,0,0,1-.76.25.86.86,0,0,1-.66-.25.93.93,0,0,1-.25-.66v-.28l.09-10q.08-4.41.08-9.94v-4.18a.71.71,0,0,1,.17-.56,1.23,1.23,0,0,1,.74-.15,4.06,4.06,0,0,1,1.61.32,3.82,3.82,0,0,1,1.26.9,5.78,5.78,0,0,1,1.39,2.86,8,8,0,0,1,.14,1.56,7.76,7.76,0,0,1-.09,1.12q-.09.61-.12.78a9.47,9.47,0,0,1-.32,1l-.32.88-.42.95-.35.88A17.08,17.08,0,0,0,235,210c.26,1.25.56,2.4.88,3.47.23.74.65,2,1.26,3.73l1,3v.07a3.9,3.9,0,0,1-.11,1,.64.64,0,0,1-.73.55C236.81,221.8,236.38,221.49,236,220.88Zm-2.32-16.5.53-2.92a3,3,0,0,0,0-.48,7.62,7.62,0,0,0-.38-2.27,3.51,3.51,0,0,0-.54-1,1,1,0,0,0-.68-.46l-.08,3.4c-.07,1.51-.1,2.69-.1,3.53s0,1.31,0,1.56C232.77,205.38,233.17,204.94,233.64,204.38Z" transform="translate(-14.18 -6.74)"/><path class="cls-1" d="M130.67,281.58a4.48,4.48,0,0,1-1.37-1.27,7.67,7.67,0,0,1-.85-1.88,12.06,12.06,0,0,1-.49-2.33,32.31,32.31,0,0,1-.23-5.29c0-.52,0-1.41.13-2.68L128,266c.07-.61.12-1.24.16-1.9a15.55,15.55,0,0,1,.46-3.13,5.32,5.32,0,0,1,0-1.06,4,4,0,0,1,1.82-3.18,6.55,6.55,0,0,1,4.16-1,3.31,3.31,0,0,1,1.69.59,1.39,1.39,0,0,1,.71,1.24.64.64,0,0,1-.32.52,1.24,1.24,0,0,1-.73.16,3.31,3.31,0,0,1-.77-.16.71.71,0,0,1-.49-.33l-.47,0v-.07a4.14,4.14,0,0,0-2.26.4,2.78,2.78,0,0,0-1.09,1.39,3.55,3.55,0,0,0-.28.93,9,9,0,0,0-.14,1.05,10.12,10.12,0,0,0-.11,1.08v1.19l0,1.15a6,6,0,0,1-.22,1.18,7.23,7.23,0,0,0-.26,1.17l0,.82c-.06.88-.1,2.09-.13,3.63a19.57,19.57,0,0,0,.21,3.89,7.51,7.51,0,0,0,1,3.13,2.67,2.67,0,0,0,2.24,1.44,2.93,2.93,0,0,0,1.55-.51,3.13,3.13,0,0,1,1.39-.52,1.55,1.55,0,0,1,1,.57,2.21,2.21,0,0,1-1.13,1.87,5.37,5.37,0,0,1-2.27.63,10.43,10.43,0,0,1-1.15,0A3.89,3.89,0,0,1,130.67,281.58Z" transform="translate(-14.18 -6.74)"/><path class="cls-1" d="M156,285.31a1.36,1.36,0,0,1-.05-.83q1.54-6.93,2.33-11.76a8,8,0,0,0-1.16-.4,6.81,6.81,0,0,0-2.11-.23q-.42,1.86-.94,5.67c-.41,2.69-.73,4.59-1,5.69a1,1,0,0,1-.35.57.64.64,0,0,1-.58.17c-.31-.07-.47-.64-.5-1.72a62.5,62.5,0,0,1,1.2-9.64c.56-3.29,1.26-6.79,2.09-10.53.13-.69.34-1.66.62-2.92a.54.54,0,0,1,.73-.46,1.83,1.83,0,0,1,.68.32,1.71,1.71,0,0,1,.46.49,20.91,20.91,0,0,0-.7,2.45c-.2.93-.41,2.07-.61,3.41-.27,1.54-.49,2.7-.67,3.47l-.13.6c-.06.17-.12.38-.18.62a6.47,6.47,0,0,0-.12.88l.71.12c.33.05.66.09,1,.12.78.1,1.36.2,1.74.28q.65-2.88,1.12-5.35l1.17-5.55.2-.89a2.16,2.16,0,0,1,.77.33,1.36,1.36,0,0,1,.44.5,2.28,2.28,0,0,1,.1,1.34l-.17.76q-.63,2.85-2.09,11-1.31,7.36-2.13,11a1.32,1.32,0,0,1-.48.76.89.89,0,0,1-.8.2A.82.82,0,0,1,156,285.31Z" transform="translate(-14.18 -6.74)"/><path class="cls-1" d="M178.09,292.63a.83.83,0,0,1,0-.73l1.86-4a5.3,5.3,0,0,0-1.37-1.22,19,19,0,0,0-2.09-1.3,5.73,5.73,0,0,0-1.24,1.33l-.42.56c-.08.14-.29.42-.63.87a11.69,11.69,0,0,1-1,1.11,4.25,4.25,0,0,1-.78.67c-.82-.38-1.2-.8-1.15-1.27a10.64,10.64,0,0,0,2.15-2.53l3.67-5.15c1.7-2.45,3.19-4.54,4.46-6.24a40.52,40.52,0,0,1,3.47-4.16c1.15-1.19,1.95-1.68,2.41-1.47a2,2,0,0,1,.93.72q-.57,1.23-2.11,6.24a61.75,61.75,0,0,1-2.26,6.62,46.46,46.46,0,0,0-1.79,4.86c-.74,2.17-1.39,3.88-2,5.11a1,1,0,0,1-1.56.56A1.45,1.45,0,0,1,178.09,292.63Zm2.73-6.66c.35-.94.76-2.11,1.22-3.52q2.44-7.32,3.18-8.89l.11-.24a9.47,9.47,0,0,0-2.18,2.38q-1.71,2.22-3.5,4.83a36,36,0,0,0-2.25,3.53,12.47,12.47,0,0,0,2.73,1.7A3.18,3.18,0,0,0,180.82,286Z" transform="translate(-14.18 -6.74)"/><path class="cls-1" d="M200.29,300.14a1,1,0,0,1-.25-.82,2.85,2.85,0,0,1,.26-.71,2.74,2.74,0,0,0,.22-.69c.32-2,.82-5.83,1.5-11.52q.81-7.29,1.49-11.48a.6.6,0,0,1,.32-.45,1,1,0,0,1,.63-.09,1.08,1.08,0,0,1,.7.41.92.92,0,0,1,.21.74q-.33,2-.76,6.06-.54,4.49-.8,6.07l0,.4-.06.41,0,.23,0,.17q-.36,2.92-1.3,8.73l-.14.87,2.73.44a1.37,1.37,0,0,1,.58,1.13,1,1,0,0,1-.37.61.84.84,0,0,1-.67.18,1.64,1.64,0,0,1-.37-.13l-.14-.06a4.53,4.53,0,0,1-.68-.07l-.6-.1a3.63,3.63,0,0,0-.56-.12,1.27,1.27,0,0,1-1.06.24A1.31,1.31,0,0,1,200.29,300.14Z" transform="translate(-14.18 -6.74)"/><path class="cls-1" d="M229.78,303.8a2.28,2.28,0,0,0-.39-.06q-.66-5.24-1.41-8.79a39.21,39.21,0,0,0-2-6.72l-.83,1.27a3,3,0,0,0-.42,1c-.11.67-.17,1.17-.19,1.48,0,.68-.07,1.72-.09,3.13s0,2.43-.08,3.16l-.17,2.78c-.07,1.19-.51,1.77-1.32,1.72s-1-.7-.93-2c.07-1,.23-2.52.5-4.56.28-1.89.45-3.4.52-4.53l.21-2.91.22-3.53a32,32,0,0,0,0-3.91,27.91,27.91,0,0,1-.05-3.2,1.08,1.08,0,0,1,.33-.73.93.93,0,0,1,.73-.26c.88.05,1.27,1,1.16,2.83l-.56,6.93.78-1.62q1.35-2.77,2.77-5.47a21.54,21.54,0,0,1,1.43-2.33c.45-.59.79-.87,1-.86a1.09,1.09,0,0,1,.68.3.77.77,0,0,1,.26.64,30,30,0,0,1-2.18,4.09,32.27,32.27,0,0,0-2.52,4.78l0,.61q.47,1.32,2.37,8.42c1.26,4.74,1.89,7.24,1.87,7.52a.8.8,0,0,1-.38.65,1.21,1.21,0,0,1-.82.22A1.27,1.27,0,0,1,229.78,303.8Z" transform="translate(-14.18 -6.74)"/><polygon class="cls-1" points="241.23 169.95 272.5 134.96 241.98 170.6 241.23 169.95"/><polygon class="cls-1" points="227.82 235.55 320.43 198.87 228.19 236.48 227.82 235.55"/><polygon class="cls-1" points="263.76 304.45 320.43 327.86 263.39 305.38 263.76 304.45"/><polygon class="cls-1" points="272.5 392.86 230.62 345.26 231.38 344.6 272.5 392.86"/><polygon class="cls-1" points="64 153.41 47.93 134.29 64.75 152.76 64 153.41"/><polygon class="cls-1" points="79.35 230.63 0 198.2 79.72 229.7 79.35 230.63"/><polygon class="cls-1" points="83.17 294.16 0 327.18 82.8 293.24 83.17 294.16"/><polygon class="cls-1" points="47.93 392.19 89.87 342.98 90.62 343.64 47.93 392.19"/></svg>